<svg width="24" height="25" viewBox="0 0 24 25" fill="none" xmlns="http://www.w3.org/2000/svg">
<path d="M3.5 21.6748C3.1 21.6748 2.75 21.5248 2.45 21.2248C2.15 20.9248 2 20.5748 2 20.1748V8.1748C2 7.7748 2.15 7.4248 2.45 7.1248C2.75 6.8248 3.1 6.6748 3.5 6.6748H8V4.1748C8 3.7748 8.15 3.4248 8.45 3.1248C8.75 2.8248 9.1 2.6748 9.5 2.6748H14.5C14.9 2.6748 15.25 2.8248 15.55 3.1248C15.85 3.4248 16 3.7748 16 4.1748V6.6748H20.5C20.9 6.6748 21.25 6.8248 21.55 7.1248C21.85 7.4248 22 7.7748 22 8.1748V20.1748C22 20.5748 21.85 20.9248 21.55 21.2248C21.25 21.5248 20.9 21.6748 20.5 21.6748H3.5ZM3.5 20.1748H20.5V8.1748H3.5V20.1748ZM9.5 6.6748H14.5V4.1748H9.5V6.6748Z" fill="#707070"/>
</svg>
