<svg width="24" height="25" viewBox="0 0 24 25" fill="none" xmlns="http://www.w3.org/2000/svg">
<g clip-path="url(#clip0_46_206)">
<path d="M18.6641 11.9256L12.6702 8.70521V7.64266H16.2638V8.855H17.5998V6.56606L16.2638 5.62053L12.6702 3.07883V1.375H11.3343V3.07415L7.73615 5.62053L6.40022 6.56606V8.855H7.73615V7.64266H11.3343V8.70053L5.33593 11.9256L4 12.6418V14.9916H5.33593V13.7746H6.40022V14.9916H7.73615V13.7746H11.3343V21.9707H10.2922V23.375H13.7122V21.9707H12.6702V13.7746H16.2683V14.9916H17.6042V13.7746H18.6685V14.9916H20.0045V12.6418L18.6685 11.9256H18.6641ZM12.6702 4.76862L14.7453 6.2384H12.6702V4.76862ZM9.25466 6.2384L11.3343 4.76394V6.2384H9.25466ZM7.44225 12.3703L11.3343 10.278V12.3703H7.44225ZM12.6702 10.2827L16.5578 12.3703H12.6702V10.2827Z" fill="#707070"/>
</g>
<defs>
<clipPath id="clip0_46_206">
<rect width="16" height="22" fill="white" transform="translate(4 1.375)"/>
</clipPath>
</defs>
</svg>
